<?xml version="1.0" encoding="UTF-8"?>
<svg version="1.1" xmlns="http://www.w3.org/2000/svg" width="256" height="256" viewBox="0 0 256 256">
<path d="M0 0 C22.44760964 18.99662915 37.75718015 48.74538969 40.89599609 77.93188477 C43.69239309 113.62624544 35.27805188 146.57974539 11.80175781 174.10229492 C9.60502416 176.58211281 7.36252566 179.00757709 5.09082031 181.41870117 C4.47980469 182.09416992 3.86878906 182.76963867 3.23925781 183.46557617 C-16.35249544 204.30786686 -47.23078931 217.17187239 -75.50366211 218.54467773 C-110.11915518 219.49709356 -142.03552424 210.57903823 -167.69042969 186.46166992 C-169.90053894 184.3683733 -169.90053894 184.3683733 -172.41699219 182.47729492 C-193.03403262 165.44723174 -205.64675449 134.77713064 -208.70629883 108.75097656 C-210.13210594 92.36019997 -209.22738955 76.28998524 -204.90917969 60.41870117 C-204.72726074 59.74307129 -204.5453418 59.06744141 -204.35791016 58.37133789 C-198.80572487 38.48965205 -188.12583085 21.25103408 -173.90917969 6.41870117 C-173.08417969 5.55245117 -172.25917969 4.68620117 -171.40917969 3.79370117 C-170.58417969 3.00995117 -169.75917969 2.22620117 -168.90917969 1.41870117 C-168.32394531 0.85022461 -167.73871094 0.28174805 -167.13574219 -0.30395508 C-151.99898286 -14.45598099 -133.80098063 -23.32453257 -113.90917969 -28.58129883 C-112.71550781 -28.90227539 -111.52183594 -29.22325195 -110.29199219 -29.55395508 C-70.1687021 -38.67288464 -30.87444634 -25.57209577 0 0 Z M-110.90917969 -8.58129883 C-112.74996094 -8.07083008 -112.74996094 -8.07083008 -114.62792969 -7.55004883 C-141.7510562 0.74379978 -163.76026782 19.18118185 -177.12670898 44.21972656 C-190.2748522 69.83513255 -192.96864751 99.07847098 -184.21142578 126.61254883 C-181.63975884 134.05503228 -178.40474999 140.93979103 -173.90917969 147.41870117 C-173.45929688 147.07838867 -173.00941406 146.73807617 -172.54589844 146.38745117 C-171.15220561 145.33729385 -169.75462186 144.2922923 -168.35449219 143.25073242 C-166.73254325 142.03556621 -165.12286833 140.80383147 -163.52636719 139.55541992 C-152.28671389 130.97959883 -139.92580977 124.65692821 -126.47167969 120.39135742 C-123.76505078 119.69503673 -123.76505078 119.69503673 -122.90917969 117.41870117 C-123.75480469 116.79995117 -124.60042969 116.18120117 -125.47167969 115.54370117 C-135.41039841 107.1989279 -141.75885532 93.35226864 -143.39355469 80.65698242 C-144.60017679 62.82381749 -141.12736926 47.74869624 -129.90917969 33.41870117 C-128.76449219 31.84088867 -128.76449219 31.84088867 -127.59667969 30.23120117 C-116.67774486 18.80440891 -101.7096983 12.67695682 -86.05541992 12.01391602 C-70.02243463 11.75441366 -53.60221431 17.12619692 -41.81152344 28.29370117 C-30.5994254 40.81809815 -23.1179921 56.74960468 -23.66699219 73.86010742 C-25.1339864 89.35819146 -29.98327237 102.15722982 -40.99121094 113.43041992 C-43.07098095 115.46809656 -43.07098095 115.46809656 -44.90917969 118.41870117 C-44.24015625 118.68682617 -43.57113281 118.95495117 -42.88183594 119.23120117 C-25.13696152 126.47206268 -9.0443042 134.13766273 5.09082031 147.41870117 C8.82283426 144.18592593 10.69616165 140.57555603 12.59082031 136.10620117 C12.89197754 135.4063208 13.19313477 134.70644043 13.50341797 133.98535156 C23.98871383 108.84940697 24.21110698 80.24304006 14.35522461 54.87524414 C10.85774712 46.40554054 6.70692736 38.69548503 1.09082031 31.41870117 C0.69024414 30.89614746 0.28966797 30.37359375 -0.12304688 29.83520508 C-17.60474705 7.31199091 -41.84773308 -7.18670579 -70.16455078 -11.2722168 C-83.84456891 -12.81277034 -97.63090442 -12.28964598 -110.90917969 -8.58129883 Z M-115.27636719 45.31713867 C-122.77976126 54.97461716 -125.99635193 66.49840384 -124.51074219 78.59057617 C-121.93830549 90.68436949 -115.92563619 100.1588366 -105.59667969 106.87573242 C-95.41126746 112.72346183 -85.21145369 114.09302612 -73.63574219 111.75854492 C-63.27356344 108.68185689 -54.34310134 102.91189168 -48.90917969 93.41870117 C-43.16848769 82.14011336 -41.72352698 72.68725654 -44.90917969 60.41870117 C-48.46347161 50.11125459 -55.0457047 40.86382646 -64.91308594 35.91088867 C-83.23026115 28.04461711 -101.27438721 30.53365284 -115.27636719 45.31713867 Z M-156.90917969 158.41870117 C-158.68396463 160.3555643 -160.28972089 162.34555354 -161.90917969 164.41870117 C-143.12729729 184.7268765 -117.04091074 197.51696807 -89.25292969 198.63745117 C-59.34596254 199.40727597 -32.5773886 189.62639952 -10.54199219 169.22729492 C-8.96340418 167.65821648 -7.42910606 166.04466892 -5.90917969 164.41870117 C-7.55284217 162.72367423 -9.21723067 161.06492184 -10.90917969 159.41870117 C-11.44414062 158.88760742 -11.97910156 158.35651367 -12.53027344 157.80932617 C-31.56145942 139.96503136 -59.01396489 133.19962323 -84.42871094 132.33276367 C-111.11973145 133.25749194 -136.23851675 141.17963849 -156.90917969 158.41870117 Z " fill="#9E9E9E" transform="translate(211.9091796875,34.581298828125)"/>
</svg>
